 <svg  version="1.0" xmlns="http://www.w3.org/2000/svg"  width="1500.000000pt" height="1500.000000pt" viewBox="0 0 1500.000000 1500.000000"  preserveAspectRatio="xMidYMid meet">  <g transform="translate(0.000000,1500.000000) scale(0.100000,-0.100000)" fill="#5a21b0" stroke="none"> <path d="M4475 10474 c-5 -2 -66 -13 -135 -24 -69 -11 -146 -24 -173 -29 -26 -4 -53 -13 -59 -19 -7 -7 -26 -12 -44 -12 -17 0 -37 -7 -44 -15 -7 -8 -23 -15 -35 -15 -12 0 -28 -7 -35 -15 -7 -8 -17 -15 -23 -15 -15 0 -96 -40 -103 -51 -3 -5 -12 -9 -20 -9 -15 0 -76 -39 -82 -52 -2 -5 -8 -8 -14 -8 -6 0 -33 -13 -60 -30 -26 -16 -55 -30 -62 -30 -8 0 -16 -7 -20 -15 -3 -8 -11 -15 -18 -15 -7 0 -32 -17 -54 -38 -227 -203 -244 -219 -284 -272 -19 -25 -37 -47 -40 -50 -3 -3 -18 -24 -34 -47 -16 -24 -33 -43 -37 -43 -5 0 -9 -5 -9 -10 0 -11 -9 -24 -41 -59 -8 -10 -19 -24 -22 -32 -4 -8 -16 -27 -27 -44 -22 -34 -34 -59 -84 -168 -20 -42 -36 -81 -36 -86 0 -5 -7 -22 -15 -37 -8 -16 -15 -36 -15 -45 0 -9 -7 -22 -15 -29 -8 -7 -15 -25 -15 -40 0 -15 -7 -33 -15 -40 -8 -7 -15 -29 -15 -49 0 -21 -7 -46 -15 -57 -8 -10 -15 -36 -15 -57 0 -21 -6 -48 -12 -60 -7 -12 -16 -69 -19 -127 -3 -58 -12 -135 -20 -172 -11 -59 -11 -81 4 -175 10 -59 17 -131 17 -159 0 -28 7 -68 15 -87 8 -20 15 -51 15 -70 0 -18 7 -42 15 -53 8 -10 15 -35 15 -55 0 -20 7 -42 15 -49 8 -7 15 -25 15 -40 0 -15 7 -33 15 -40 8 -7 15 -21 15 -31 0 -10 16 -54 35 -98 19 -43 35 -84 35 -90 0 -6 5 -11 10 -11 6 0 10 -8 10 -18 0 -10 7 -27 15 -38 8 -10 15 -27 15 -37 0 -10 7 -20 15 -23 8 -4 15 -14 15 -24 0 -10 7 -20 15 -24 8 -3 15 -11 15 -18 0 -8 12 -27 28 -44 44 -50 92 -112 92 -121 0 -15 104 -131 180 -200 41 -37 94 -87 117 -110 24 -24 45 -43 47 -43 3 0 32 -18 65 -40 33 -22 63 -40 67 -40 3 0 38 -21 78 -47 39 -27 92 -58 118 -71 26 -12 50 -27 53 -32 3 -6 14 -10 24 -10 10 0 24 -7 31 -15 7 -8 24 -15 39 -15 15 0 35 -6 46 -13 11 -8 56 -21 100 -31 44 -9 105 -23 135 -31 150 -39 216 -45 477 -45 146 0 273 4 289 10 16 5 56 14 89 19 33 6 98 20 145 31 47 12 102 25 123 29 21 5 44 14 50 20 6 6 23 11 38 11 15 0 32 7 39 15 7 8 21 15 32 15 10 0 21 7 24 15 4 8 12 15 18 15 7 0 33 11 57 25 24 14 51 28 59 32 8 3 35 22 59 40 24 18 48 33 53 33 5 0 24 11 42 25 18 14 40 25 50 25 9 0 19 7 22 15 4 8 10 15 14 15 9 0 133 114 225 206 28 28 65 72 83 97 l31 47 -22 15 c-12 8 -27 15 -34 15 -7 0 -13 4 -13 8 0 5 -19 19 -42 31 -24 12 -79 45 -123 72 -44 27 -102 61 -130 74 -27 14 -57 29 -65 34 -138 84 -343 202 -372 215 -20 9 -40 21 -43 26 -3 4 -22 14 -43 21 -20 6 -45 20 -55 30 -10 11 -23 19 -30 19 -7 0 -34 16 -61 35 -27 19 -53 35 -58 35 -4 0 -27 14 -50 30 -22 17 -47 30 -55 30 -7 0 -13 5 -13 10 0 6 -4 10 -10 10 -10 0 -187 98 -290 160 -36 22 -78 46 -95 54 -16 8 -41 23 -55 34 -14 10 -45 29 -70 40 -25 12 -53 26 -62 32 -26 15 -46 26 -108 60 -189 105 -239 140 -242 170 -3 24 11 35 102 82 25 13 47 27 49 31 2 5 13 13 25 18 11 5 48 25 81 44 59 34 202 105 211 105 2 0 23 14 46 30 22 17 45 30 51 30 5 0 26 14 47 30 21 17 45 30 53 30 9 0 19 5 22 11 4 5 17 14 28 20 12 5 29 13 37 19 46 30 119 68 143 73 15 4 27 12 27 17 0 6 9 10 19 10 11 0 26 6 33 13 7 7 20 16 28 20 8 4 29 16 45 27 17 11 39 24 50 30 11 6 34 19 50 30 42 27 136 79 228 125 100 51 116 60 130 74 6 6 19 11 29 11 10 0 18 5 18 10 0 6 10 15 23 20 12 6 31 16 42 22 48 32 98 59 200 112 61 32 124 66 140 77 17 10 37 22 45 25 43 17 88 42 117 62 l32 24 -42 50 c-56 67 -85 97 -127 132 -29 23 -120 106 -201 181 -9 8 -21 15 -27 15 -6 0 -15 6 -19 13 -4 6 -33 24 -63 40 -31 15 -80 43 -109 62 -29 19 -59 35 -66 35 -8 0 -16 4 -19 9 -7 11 -88 51 -103 51 -6 0 -16 7 -23 15 -7 8 -23 15 -35 15 -12 0 -28 7 -35 15 -7 8 -27 15 -44 15 -18 0 -37 5 -44 12 -6 6 -30 14 -54 18 -24 4 -68 13 -98 19 -30 6 -77 14 -104 17 -27 2 -67 9 -90 14 -39 9 -480 13 -501 4z m660 -2613 c10 -17 -11 -21 -31 -6 -18 14 -18 14 3 15 12 0 24 -4 28 -9z m395 -231 c12 -8 11 -10 -7 -10 -13 0 -23 5 -23 10 0 13 11 13 30 0z m120 -72 c0 -13 -32 -6 -37 9 -3 7 3 9 16 6 12 -3 21 -10 21 -15z m228 -129 c12 -19 11 -19 -7 -10 -26 14 -36 31 -19 31 7 0 19 -9 26 -21z m107 -50 c10 -15 -1 -23 -20 -15 -9 3 -13 10 -10 16 8 13 22 13 30 -1z m110 -59 c-3 -5 -15 -10 -26 -10 -10 0 -19 5 -19 10 0 6 12 10 26 10 14 0 23 -4 19 -10z"/> </g> </svg> 